<svg version="1.1" id="Layer_1" xmlns="http://www.w3.org/2000/svg" xmlns:xlink="http://www.w3.org/1999/xlink" x="0px" y="0px"
	 width="100%" viewBox="0 0 482 517" enable-background="new 0 0 482 517" xml:space="preserve">
<path fill="#ffffff" opacity="1.000000" stroke="none"
	d="
M320.085938,360.982758 
	C320.398956,361.061462 320.647491,361.233398 321.061096,361.920105 
	C321.545898,362.556305 321.801178,362.770935 322.056458,362.985565 
	C322.056458,362.985565 321.999756,362.999725 322.143829,363.176880 
	C322.498138,363.612488 322.747345,363.825348 323.035492,363.992584 
	C323.035492,363.992584 322.992554,364.004425 323.131744,364.187592 
	C323.474762,364.627686 323.719025,364.837585 324.003693,365.000488 
	C324.003693,365.000488 324.000000,365.000000 324.134460,365.196228 
	C324.475677,365.641296 324.720642,365.843872 325.003906,366.000153 
	C325.003906,366.000153 325.000000,366.000000 325.142212,366.197327 
	C325.502319,366.644135 325.759155,366.843414 326.054932,366.992493 
	C326.627411,367.469360 327.199860,367.946228 328.026611,368.888092 
	C328.492126,369.613983 328.744263,369.826355 329.037262,369.990173 
	C329.037262,369.990173 328.995087,370.005035 329.139587,370.187012 
	C329.495361,370.624390 329.746674,370.831055 330.038086,370.989014 
	C330.038086,370.989014 329.995636,371.004639 330.142090,371.186157 
	C330.502319,371.622162 330.755249,371.828644 331.047363,371.987152 
	C331.047363,371.987152 330.996674,372.003143 331.147217,372.181946 
	C331.517822,372.616272 331.777405,372.821808 332.076538,372.977386 
	C332.076538,372.977386 332.012604,372.989685 332.169128,373.164673 
	C332.597137,373.547668 332.868622,373.755707 333.140106,373.963715 
	C349.447357,390.159668 365.709839,406.401184 382.103088,422.509644 
	C385.066040,425.421143 383.306488,427.620728 381.182922,428.984924 
	C374.329926,433.387604 367.407806,437.776611 360.127777,441.397766 
	C350.314911,446.278809 340.255920,450.714935 330.100677,454.845703 
	C315.934875,460.607758 301.281189,464.874695 285.942627,465.895630 
	C271.238708,466.874329 256.481750,468.093842 241.778824,467.777588 
	C224.667313,467.409485 207.838318,464.491333 191.354187,459.255249 
	C173.653397,453.632660 156.846390,446.031097 140.896317,436.852264 
	C129.950790,430.553375 120.000290,422.373322 110.139198,414.375580 
	C92.654922,400.195099 78.977234,382.730591 66.407585,364.055450 
	C49.892803,339.518921 41.551300,312.108856 35.347267,283.816833 
	C33.563004,275.680084 33.650768,267.115265 33.091488,258.732666 
	C32.584362,251.131729 32.024311,243.507156 32.123482,235.901306 
	C32.206768,229.514084 33.206055,223.138809 34.300652,216.246338 
	C36.008492,213.845276 37.879105,211.975403 34.968712,209.966904 
	C35.017899,208.585373 35.067085,207.203842 35.313755,205.246277 
	C35.711433,204.440750 35.865002,204.183426 35.971943,203.898285 
	C36.016998,203.482635 36.062054,203.066986 36.455929,202.205078 
	C36.835632,200.473572 36.866520,199.188293 36.897408,197.903030 
	C36.973701,197.171982 37.049992,196.440948 37.259155,195.232391 
	C37.476276,194.469772 37.407310,194.223846 37.185135,194.017136 
	C47.458385,152.637238 67.106155,116.507851 97.797768,85.610893 
	C104.134003,92.189629 110.163971,98.633759 116.401154,104.870674 
	C121.804626,110.273941 122.252159,110.088768 127.525948,105.036102 
	C142.173447,91.002747 159.502029,81.235268 177.669968,72.454491 
	C189.693420,66.643425 202.351959,63.307343 214.999496,59.771946 
	C220.962753,58.105026 227.323425,57.714962 233.540421,57.140064 
	C240.129364,56.530769 246.778000,55.905834 253.371765,56.131008 
	C275.385193,56.882748 296.937866,59.679596 317.968048,67.258461 
	C337.082672,74.146980 354.782562,83.306602 370.759521,95.503334 
	C387.751099,108.474632 401.833923,124.379692 412.941589,142.777115 
	C420.496094,155.289429 427.861237,167.844925 432.113129,182.018448 
	C437.030121,198.408813 441.606354,214.818222 441.960266,233.011200 
	C442.005554,242.301300 442.032928,250.666809 442.060333,259.032318 
	C441.816986,278.074341 436.135254,295.939117 430.342133,314.324829 
	C429.051941,313.684082 427.889679,313.414429 427.165955,312.700378 
	C418.941467,304.585205 411.532288,295.404510 402.381317,288.540131 
	C394.484070,282.616211 398.080872,276.335236 399.278717,270.309204 
	C403.711456,248.009048 401.962158,226.349365 396.101044,204.435898 
	C391.838898,188.500595 384.859711,174.209061 375.772095,160.800186 
	C371.972809,155.194305 367.145996,150.242767 362.492859,145.268280 
	C356.696533,139.071640 351.611542,132.249619 343.833282,127.941185 
	C334.475372,122.757805 326.018799,115.900330 316.534210,111.002686 
	C298.562073,101.722267 278.936646,98.294464 258.285400,96.558861 
	C256.128265,95.783592 254.530380,94.890831 253.076080,95.083244 
	C242.635117,96.464691 232.138840,97.653358 221.835220,99.759720 
	C216.031250,100.946228 210.560120,103.761055 204.939041,105.842346 
	C204.939041,105.842346 204.557480,105.970589 203.963882,106.013657 
	C201.620804,107.127342 199.871307,108.197968 198.121811,109.268585 
	C180.990997,116.612305 166.089355,127.335236 151.346146,139.746521 
	C158.355865,146.847626 165.049927,153.628998 172.029022,160.892410 
	C172.527863,161.600052 172.752945,161.813782 172.989288,162.015625 
	C172.989288,162.015625 172.999390,162.000610 173.148178,162.182159 
	C173.511414,162.593079 173.736649,162.811340 173.972641,163.018478 
	C173.972641,163.018478 174.000595,162.998779 174.153046,163.188629 
	C174.530289,163.604233 174.767853,163.815659 175.018188,164.012741 
	C175.018188,164.012741 174.989807,164.014969 174.986588,164.366089 
	C174.214462,166.131470 173.614517,167.675217 172.647171,168.937378 
	C168.624557,174.186157 164.093979,179.089767 160.483047,184.600494 
	C153.452759,195.329529 148.465546,207.011337 145.946686,220.096848 
	C143.264984,229.273331 142.456635,238.252472 143.084351,247.344284 
	C143.172134,248.615616 144.274933,249.816849 144.907883,251.050537 
	C147.027222,271.831360 152.687347,291.653564 165.341934,308.356445 
	C180.345230,328.159302 199.429291,342.701538 223.861313,350.193024 
	C233.427856,353.126373 243.050842,354.531525 252.545532,354.663422 
	C268.075958,354.879089 283.790161,353.395630 297.860168,345.509308 
	C301.500031,343.469177 303.867737,344.064148 306.501984,346.994354 
	C309.726501,350.581146 313.304871,353.849884 317.016510,357.768616 
	C317.557129,358.512939 317.811493,358.744812 318.065857,358.976685 
	C318.065857,358.976685 318.006134,358.992004 318.153717,359.168671 
	C318.513855,359.604248 318.766663,359.814850 319.059753,359.977142 
	C319.059753,359.977142 319.003632,359.996429 319.154480,360.176086 
	C319.565521,360.564728 319.825714,360.773743 320.085938,360.982758 
M172.016251,411.970612 
	C172.016251,411.970612 172.042892,411.910065 172.278183,412.578766 
	C173.550842,413.048859 174.823486,413.518951 176.551331,414.095703 
	C176.551331,414.095703 176.992142,414.251495 177.283188,414.556732 
	C177.494003,414.746887 177.730270,414.896942 178.644302,415.084290 
	C179.080963,415.116974 179.517624,415.149628 180.291397,415.507660 
	C180.531830,415.711609 180.798889,415.870941 181.526443,416.094208 
	C181.526443,416.094208 181.965256,416.180725 182.303543,416.504547 
	C182.544189,416.707947 182.810852,416.868042 183.713791,417.069519 
	C184.123779,417.094543 184.533783,417.119598 185.280716,417.477905 
	C185.520905,417.687866 185.788574,417.853363 186.017639,417.967712 
	C186.017639,417.967712 186.046371,417.907837 186.228210,418.567474 
	C188.485046,419.370392 190.741882,420.173309 193.676483,421.059479 
	C194.126205,421.127655 194.575912,421.195862 195.315384,421.550049 
	C195.521881,421.729309 195.750488,421.873535 196.528137,422.105194 
	C196.700974,422.156708 196.873795,422.208221 197.263794,422.405457 
	C197.263794,422.405457 197.643555,422.419739 197.643555,422.419739 
	C197.643555,422.419739 197.972046,422.217072 198.694473,422.358704 
	C202.480560,423.301178 206.427185,423.838318 210.022568,425.262268 
	C220.710388,429.495300 231.855377,430.813141 243.884338,431.625763 
	C252.288971,431.456848 260.693604,431.287903 269.976868,431.048004 
	C288.181458,429.386536 305.899719,425.805176 322.826508,417.878632 
	C322.300293,417.116241 322.013977,416.535278 321.581329,416.099640 
	C315.649170,410.126678 309.715668,404.154785 303.743744,398.221619 
	C298.587616,393.098969 294.336700,386.777710 285.156525,388.915344 
	C271.676025,392.054291 257.987671,393.966980 244.071671,391.971252 
	C235.624939,390.759918 226.989731,390.273865 218.775742,388.156433 
	C203.618362,384.249115 189.445190,378.125397 176.163254,369.354065 
	C162.923248,360.610382 151.216858,350.599396 141.039413,338.521851 
	C131.897095,327.672699 123.606644,316.206818 118.733849,302.904907 
	C114.708763,291.917114 112.315453,280.331543 109.375435,268.783630 
	C109.483849,268.490723 109.431160,268.227722 108.796936,267.267670 
	C108.271057,261.178253 107.745171,255.088852 107.386452,248.771332 
	C107.484421,248.480515 107.425781,248.222931 107.112541,247.073593 
	C107.155174,242.707382 107.197815,238.341187 107.562225,233.452957 
	C107.428078,232.302811 107.293930,231.152679 107.378624,229.245087 
	C107.998108,226.478561 108.617592,223.712036 109.603683,220.348328 
	C110.043274,217.223724 110.482864,214.099121 111.017975,210.329376 
	C111.079094,209.899506 111.140213,209.469620 111.666512,208.874374 
	C111.762505,208.236496 111.858498,207.598602 112.042145,206.313263 
	C112.091858,205.880814 112.141563,205.448380 112.507889,204.681274 
	C112.709610,204.444901 112.863419,204.180649 113.027481,203.173492 
	C113.065613,202.457214 113.103737,201.740921 113.461655,200.688004 
	C113.668289,200.453751 113.834274,200.193558 113.953964,199.975739 
	C113.953964,199.975739 113.897346,199.937134 114.561859,199.718246 
	C115.376770,196.812820 116.191681,193.907410 117.074570,190.202072 
	C117.240128,189.065521 117.105812,187.766815 117.618782,186.818100 
	C121.656647,179.350311 125.382538,171.661133 130.053207,164.601654 
	C135.752579,155.987335 142.277527,147.919235 148.466812,139.586121 
	C139.986008,131.057098 131.223358,122.244606 121.547318,112.513542 
	C114.059158,122.521751 106.389244,132.140762 99.416397,142.240997 
	C89.040291,157.270874 80.811409,173.343689 76.227051,191.246307 
	C71.622223,209.228851 67.786079,227.308350 68.159996,245.915985 
	C68.358231,255.780670 69.804161,265.647522 71.109436,275.457184 
	C73.961487,296.891449 81.417458,317.005798 91.747864,335.705566 
	C98.112228,347.226105 104.783348,359.003723 114.831596,368.188995 
	C122.814629,375.486420 130.072662,383.632965 138.432022,390.446228 
	C146.044128,396.650421 154.705353,401.567444 163.299667,407.414825 
	C163.608627,407.591949 163.917603,407.769073 164.570511,408.006134 
	C164.570511,408.006134 164.908447,408.093842 165.292191,408.450256 
	C165.595703,408.618988 165.899231,408.787720 166.556931,409.010681 
	C166.556931,409.010681 166.904312,409.098541 167.288834,409.454346 
	C167.592560,409.622986 167.896271,409.791626 168.557892,410.007019 
	C168.557892,410.007019 168.906128,410.101837 169.282333,410.456238 
	C169.579544,410.627106 169.876770,410.797974 170.558853,411.027008 
	C170.558853,411.027008 170.936279,411.122070 171.275803,411.461365 
	C171.517441,411.675201 171.786255,411.846344 172.016251,411.970612 
M38.469833,203.498642 
	C38.469833,203.498642 38.509827,203.483871 38.469833,203.498642 
z"/>
<path fill="#ffffff" opacity="1.000000" stroke="none"
	d="
M266.001709,133.189133 
	C275.845245,135.498917 286.075867,136.785400 295.451569,140.331924 
	C314.857635,147.672577 331.060822,159.849594 343.747925,176.466980 
	C353.669434,189.462051 360.503998,203.853378 364.075592,219.851440 
	C367.544006,235.387207 368.279877,250.962723 364.559753,266.464172 
	C362.776001,273.897034 360.056183,281.151245 357.190796,288.256714 
	C355.984009,291.249268 356.237579,292.894470 358.458710,295.103363 
	C383.975586,320.479584 409.395386,345.953339 434.853821,371.388367 
	C435.556305,372.090240 436.400940,372.649811 437.621765,373.631592 
	C429.077667,383.808502 420.853271,393.604553 412.051056,404.088928 
	C408.961151,400.372284 406.716614,397.159912 403.964355,394.466339 
	C397.815430,388.448578 391.303802,382.801880 385.140900,376.797729 
	C376.637573,368.513458 368.319733,360.038788 359.922119,351.645996 
	C351.524567,343.253326 343.126740,334.860962 334.728882,326.468597 
	C328.446838,320.190704 322.094330,313.981140 315.913696,307.604919 
	C313.066559,304.667694 310.555695,301.404541 307.575684,297.772614 
	C307.104523,296.536224 306.950012,295.816376 307.139709,295.014465 
	C322.710785,279.597870 329.127289,261.083649 328.059448,239.595505 
	C327.027496,218.829895 317.221191,202.691376 302.502045,188.951309 
	C293.551880,180.596542 282.401581,176.485138 270.866821,172.512451 
	C263.312653,168.396698 255.546967,170.037048 247.861023,170.677994 
	C247.537140,170.705002 247.271591,171.431458 246.593460,171.912598 
	C237.135788,175.285080 227.819244,178.046570 219.083740,182.069641 
	C213.915985,184.449615 209.666565,188.823624 204.634064,192.134735 
	C203.191910,192.002289 202.119888,192.036057 201.047867,192.069824 
	C193.299530,184.052734 185.551208,176.035629 177.453995,167.594528 
	C177.038055,166.180145 176.971008,165.189774 176.903961,164.199402 
	C181.068420,160.851929 185.287094,157.569366 189.387161,154.144806 
	C201.686142,143.872192 215.832047,137.741409 231.562042,135.051117 
	C234.469360,134.553894 237.330978,133.789566 240.927399,133.338165 
	C243.750137,133.425140 245.859146,133.322495 247.968170,133.219833 
	C248.429062,133.188858 248.889969,133.157883 250.005463,133.339203 
	C252.466995,133.354324 254.273926,133.157120 256.080841,132.959900 
	C256.518799,133.004028 256.956726,133.048141 258.047913,133.325623 
	C261.134674,133.435699 263.568207,133.312408 266.001709,133.189133 
z"/>
<path fill="#ffffff" opacity="1.000000" stroke="none"
	d="
M306.795502,295.096527 
	C306.950012,295.816376 307.104523,296.536224 307.281433,297.624512 
	C296.668213,308.872131 283.338928,314.074249 268.711884,317.117462 
	C256.857941,319.583679 245.628723,318.205902 234.047485,315.227570 
	C217.025070,310.849854 204.150330,301.102844 194.122543,287.231842 
	C184.278519,273.615021 179.353821,258.227173 180.058975,241.393311 
	C180.844513,222.640991 187.525513,206.206909 200.954681,192.393997 
	C202.119888,192.036057 203.191910,192.002289 204.610718,192.465912 
	C209.908890,198.085327 214.785446,203.282227 219.823990,208.317017 
	C248.793259,237.264786 277.800873,266.174133 306.795502,295.096527 
z"/>
<path fill="#ffffff" opacity="1.000000" stroke="none"
	d="
M176.588562,164.141693 
	C176.971008,165.189774 177.038055,166.180145 177.109802,167.541977 
	C163.387436,180.930191 153.731964,196.399597 148.897995,214.770706 
	C148.519821,216.207916 148.184082,217.656311 147.489868,219.459778 
	C146.804062,219.783890 146.456985,219.747742 146.109924,219.711578 
	C148.465546,207.011337 153.452759,195.329529 160.483047,184.600494 
	C164.093979,179.089767 168.624557,174.186157 172.647171,168.937378 
	C173.614517,167.675217 174.214462,166.131470 174.987640,164.351898 
	C175.418991,164.019073 175.846069,164.051529 176.588562,164.141693 
z"/>
<path fill="#ffffff" opacity="1.000000" stroke="none"
	d="
M205.334412,105.874710 
	C210.560120,103.761055 216.031250,100.946228 221.835220,99.759720 
	C232.138840,97.653358 242.635117,96.464691 253.076080,95.083244 
	C254.530380,94.890831 256.128265,95.783592 257.840942,96.502007 
	C240.111252,97.089546 222.853943,101.114693 205.334412,105.874710 
z"/>
<path fill="#ffffff" opacity="1.000000" stroke="none"
	d="
M145.946686,220.096863 
	C146.456985,219.747742 146.804062,219.783890 147.412003,219.845123 
	C146.774124,229.948654 145.875351,240.027115 144.942230,250.578064 
	C144.274933,249.816849 143.172134,248.615616 143.084351,247.344284 
	C142.456635,238.252472 143.264984,229.273331 145.946686,220.096863 
z"/>
<path fill="#ffffff" opacity="1.000000" stroke="none"
	d="
M442.446472,258.829163 
	C442.032928,250.666809 442.005554,242.301300 441.980713,233.467010 
	C442.319824,234.795364 442.926819,236.589813 442.944702,238.390121 
	C443.011658,245.134399 442.886047,251.880569 442.446472,258.829163 
z"/>
<path fill="#ffffff" opacity="1.000000" stroke="none"
	d="
M34.662727,210.217041 
	C37.879105,211.975403 36.008492,213.845276 34.510075,215.876556 
	C34.264679,214.168198 34.310711,212.317688 34.662727,210.217041 
z"/>
<path fill="#ffffff" opacity="1.000000" stroke="none"
	d="
M198.468903,109.199821 
	C199.871307,108.197968 201.620804,107.127342 203.768005,106.059952 
	C202.382477,107.085800 200.599243,108.108429 198.468903,109.199821 
z"/>
<path fill="#ffffff" opacity="1.000000" stroke="none"
	d="
M255.862747,132.682526 
	C254.273926,133.157120 252.466995,133.354324 250.350098,133.381348 
	C251.908295,132.942490 253.776474,132.673813 255.862747,132.682526 
z"/>
<path fill="#ffffff" opacity="1.000000" stroke="none"
	d="
M36.584053,198.114471 
	C36.866520,199.188293 36.835632,200.473572 36.521339,201.898407 
	C36.248856,200.800644 36.259777,199.563278 36.584053,198.114471 
z"/>
<path fill="#ffffff" opacity="1.000000" stroke="none"
	d="
M265.561951,133.123657 
	C263.568207,133.312408 261.134674,133.435699 258.372528,133.385681 
	C260.403320,133.161011 262.762756,133.109604 265.561951,133.123657 
z"/>
<path fill="#ffffff" opacity="1.000000" stroke="none"
	d="
M247.538696,133.146301 
	C245.859146,133.322495 243.750137,133.425140 241.325928,133.347931 
	C243.043579,133.136292 245.076401,133.104523 247.538696,133.146301 
z"/>
<path fill="#ffffff" opacity="1.000000" stroke="none"
	d="
M331.971619,372.739929 
	C331.777405,372.821808 331.517822,372.616272 331.154541,372.156403 
	C331.296417,372.135529 331.581543,372.319000 331.971619,372.739929 
z"/>
<path fill="#ffffff" opacity="1.000000" stroke="none"
	d="
M333.025452,373.721191 
	C332.868622,373.755707 332.597137,373.547668 332.171936,373.132263 
	C332.315765,373.109436 332.613281,373.294067 333.025452,373.721191 
z"/>
<path fill="#ffffff" opacity="1.000000" stroke="none"
	d="
M328.939941,369.751526 
	C328.744263,369.826355 328.492126,369.613983 328.144745,369.145142 
	C328.286621,369.129089 328.564606,369.320984 328.939941,369.751526 
z"/>
<path fill="#ffffff" opacity="1.000000" stroke="none"
	d="
M173.879196,162.789566 
	C173.736649,162.811340 173.511414,162.593079 173.140930,162.187347 
	C173.322418,162.091400 173.589371,162.274612 173.879196,162.789566 
z"/>
<path fill="#ffffff" opacity="1.000000" stroke="none"
	d="
M174.915802,163.783020 
	C174.767853,163.815659 174.530289,163.604233 174.143829,163.202911 
	C174.259247,163.202682 174.536346,163.377991 174.915802,163.783020 
z"/>
<path fill="#ffffff" opacity="1.000000" stroke="none"
	d="
M318.972351,359.730652 
	C318.766663,359.814850 318.513855,359.604248 318.163025,359.139282 
	C318.311493,359.116882 318.598236,359.300537 318.972351,359.730652 
z"/>
<path fill="#ffffff" opacity="1.000000" stroke="none"
	d="
M35.743553,204.002930 
	C35.865002,204.183426 35.711433,204.440750 35.355129,204.833405 
	C35.304401,204.700241 35.409786,204.403915 35.743553,204.002930 
z"/>
<path fill="#ffffff" opacity="1.000000" stroke="none"
	d="
M37.158428,194.260559 
	C37.407310,194.223846 37.476276,194.469772 37.314865,194.868530 
	C37.237701,194.982162 37.131721,194.503983 37.158428,194.260559 
z"/>
<path fill="#ffffff" opacity="1.000000" stroke="none"
	d="
M172.896790,161.787628 
	C172.752945,161.813782 172.527863,161.600052 172.157562,161.202332 
	C172.343735,161.093018 172.611481,161.269485 172.896790,161.787628 
z"/>
<path fill="#ffffff" opacity="1.000000" stroke="none"
	d="
M317.974915,358.724762 
	C317.811493,358.744812 317.557129,358.512939 317.173584,358.056030 
	C317.324219,358.044952 317.604065,358.258881 317.974915,358.724762 
z"/>
<path fill="#ffffff" opacity="1.000000" stroke="none"
	d="
M330.952820,371.747314 
	C330.755249,371.828644 330.502319,371.622162 330.149292,371.164734 
	C330.292786,371.143677 330.575531,371.325562 330.952820,371.747314 
z"/>
<path fill="#ffffff" opacity="1.000000" stroke="none"
	d="
M319.983124,360.741943 
	C319.825714,360.773743 319.565521,360.564728 319.163269,360.147736 
	C319.307587,360.126892 319.593933,360.314026 319.983124,360.741943 
z"/>
<path fill="#ffffff" opacity="1.000000" stroke="none"
	d="
M321.957397,362.744171 
	C321.801178,362.770935 321.545898,362.556305 321.151733,362.132202 
	C321.294647,362.116058 321.576477,362.309418 321.957397,362.744171 
z"/>
<path fill="#ffffff" opacity="1.000000" stroke="none"
	d="
M322.944702,363.750671 
	C322.747345,363.825348 322.498138,363.612488 322.150818,363.148499 
	C322.293762,363.131531 322.573853,363.320160 322.944702,363.750671 
z"/>
<path fill="#ffffff" opacity="1.000000" stroke="none"
	d="
M323.912537,364.765106 
	C323.719025,364.837585 323.474762,364.627686 323.139221,364.166626 
	C323.278809,364.151550 323.550079,364.340637 323.912537,364.765106 
z"/>
<path fill="#ffffff" opacity="1.000000" stroke="none"
	d="
M324.912720,365.766541 
	C324.720642,365.843872 324.475677,365.641296 324.134216,365.194336 
	C324.273499,365.175171 324.547485,365.354065 324.912720,365.766541 
z"/>
<path fill="#ffffff" opacity="1.000000" stroke="none"
	d="
M325.946960,366.762390 
	C325.759155,366.843414 325.502319,366.644135 325.142090,366.195343 
	C325.279510,366.174805 325.559235,366.353546 325.946960,366.762390 
z"/>
<path fill="#ffffff" opacity="1.000000" stroke="none"
	d="
M329.944916,370.749756 
	C329.746674,370.831055 329.495361,370.624390 329.146606,370.165771 
	C329.290009,370.145203 329.570862,370.327850 329.944916,370.749756 
z"/>
<path fill="#ffffff" opacity="1.000000" stroke="none"
	d="
M243.539017,431.428284 
	C251.509537,431.153351 259.825378,431.075928 268.619720,431.058716 
	C260.693604,431.287903 252.288971,431.456848 243.539017,431.428284 
z"/>
<path fill="#ffffff" opacity="1.000000" stroke="none"
	d="
M114.229599,199.827698 
	C114.739403,197.102524 115.581459,194.267929 116.715057,191.217651 
	C116.191681,193.907410 115.376770,196.812820 114.229599,199.827698 
z"/>
<path fill="#ffffff" opacity="1.000000" stroke="none"
	d="
M186.137299,418.237671 
	C188.232925,418.734467 190.419495,419.561127 192.802383,420.682007 
	C190.741882,420.173309 188.485046,419.370392 186.137299,418.237671 
z"/>
<path fill="#ffffff" opacity="1.000000" stroke="none"
	d="
M109.420387,220.646912 
	C109.598732,217.786331 109.960381,214.627151 110.622238,211.221252 
	C110.482864,214.099121 110.043274,217.223724 109.420387,220.646912 
z"/>
<path fill="#ffffff" opacity="1.000000" stroke="none"
	d="
M172.160522,412.244446 
	C173.286255,412.402649 174.529617,412.895233 175.934570,413.688416 
	C174.823486,413.518951 173.550842,413.048859 172.160522,412.244446 
z"/>
<path fill="#ffffff" opacity="1.000000" stroke="none"
	d="
M111.433922,208.957062 
	C111.276726,208.451492 111.352127,207.863235 111.691010,207.117859 
	C111.858498,207.598602 111.762505,208.236496 111.433922,208.957062 
z"/>
<path fill="#ffffff" opacity="1.000000" stroke="none"
	d="
M107.401337,233.713959 
	C107.174728,232.914673 107.109001,231.854355 107.101532,230.398285 
	C107.293930,231.152679 107.428078,232.302811 107.401337,233.713959 
z"/>
<path fill="#ffffff" opacity="1.000000" stroke="none"
	d="
M182.134399,416.342651 
	C182.283203,416.279816 182.601151,416.378906 183.011292,416.731384 
	C182.810852,416.868042 182.544189,416.707947 182.134399,416.342651 
z"/>
<path fill="#ffffff" opacity="1.000000" stroke="none"
	d="
M163.101898,407.233337 
	C163.264404,407.165283 163.624664,407.278778 164.105743,407.669250 
	C163.917603,407.769073 163.608627,407.591949 163.101898,407.233337 
z"/>
<path fill="#ffffff" opacity="1.000000" stroke="none"
	d="
M165.100311,408.272064 
	C165.256607,408.205597 165.604782,408.317322 166.077850,408.692749 
	C165.899231,408.787720 165.595703,408.618988 165.100311,408.272064 
z"/>
<path fill="#ffffff" opacity="1.000000" stroke="none"
	d="
M167.096573,409.276428 
	C167.251923,409.210968 167.599548,409.323395 168.073578,409.698029 
	C167.896271,409.791626 167.592560,409.622986 167.096573,409.276428 
z"/>
<path fill="#ffffff" opacity="1.000000" stroke="none"
	d="
M169.094238,410.279053 
	C169.247559,410.218109 169.588974,410.334351 170.052200,410.709717 
	C169.876770,410.797974 169.579544,410.627106 169.094238,410.279053 
z"/>
<path fill="#ffffff" opacity="1.000000" stroke="none"
	d="
M171.106049,411.291718 
	C171.259491,411.233673 171.582703,411.345276 171.994080,411.715820 
	C171.786255,411.846344 171.517441,411.675201 171.106049,411.291718 
z"/>
<path fill="#ffffff" opacity="1.000000" stroke="none"
	d="
M177.137665,414.404114 
	C177.341644,414.167084 177.616119,414.274445 177.903778,414.790222 
	C177.730270,414.896942 177.494003,414.746887 177.137665,414.404114 
z"/>
<path fill="#ffffff" opacity="1.000000" stroke="none"
	d="
M180.122833,415.344971 
	C180.273987,415.279816 180.593689,415.377319 181.002960,415.730255 
	C180.798889,415.870941 180.531830,415.711609 180.122833,415.344971 
z"/>
<path fill="#ffffff" opacity="1.000000" stroke="none"
	d="
M185.112244,417.311279 
	C185.272522,417.242279 185.601273,417.339935 186.006866,417.705994 
	C185.788574,417.853363 185.520905,417.687866 185.112244,417.311279 
z"/>
<path fill="#ffffff" opacity="1.000000" stroke="none"
	d="
M195.170502,421.407043 
	C195.369705,421.153503 195.639450,421.250183 195.918015,421.768433 
	C195.750488,421.873535 195.521881,421.729309 195.170502,421.407043 
z"/>
<path fill="#ffffff" opacity="1.000000" stroke="none"
	d="
M197.155212,422.332581 
	C197.046631,422.259735 197.505707,422.159088 197.738876,422.188080 
	C197.972046,422.217072 197.643555,422.419739 197.643555,422.419739 
	C197.643555,422.419739 197.263794,422.405457 197.155212,422.332581 
z"/>
<path fill="#ffffff" opacity="1.000000" stroke="none"
	d="
M38.489830,203.491257 
	C38.509827,203.483871 38.469833,203.498642 38.489830,203.491257 
z"/>
<path fill="#ffffff" opacity="1.000000" stroke="none"
	d="
M112.349579,204.848602 
	C112.296677,204.713242 112.402084,204.410538 112.738403,203.998169 
	C112.863419,204.180649 112.709610,204.444901 112.349579,204.848602 
z"/>
<path fill="#ffffff" opacity="1.000000" stroke="none"
	d="
M107.302872,248.885391 
	C107.186890,248.832932 107.154488,248.666428 107.166306,248.249252 
	C107.425781,248.222931 107.484421,248.480515 107.302872,248.885391 
z"/>
<path fill="#ffffff" opacity="1.000000" stroke="none"
	d="
M109.287262,268.897247 
	C109.170433,268.840973 109.141777,268.671051 109.165237,268.247925 
	C109.431160,268.227722 109.483849,268.490723 109.287262,268.897247 
z"/>
<path fill="#ffffff" opacity="1.000000" stroke="none"
	d="
M113.301758,200.856323 
	C113.244438,200.708496 113.347023,200.392365 113.704605,199.991821 
	C113.834274,200.193558 113.668289,200.453751 113.301758,200.856323 
z"/>
<path fill="#ffffff" opacity="1.000000" stroke="none"
	d="
M270.866821,172.512451 
	C263.272522,172.538422 255.516296,172.243423 247.369476,171.890244 
	C247.271591,171.431458 247.537140,170.705002 247.861023,170.677994 
	C255.546967,170.037048 263.312653,168.396698 270.866821,172.512451 
z"/>
</svg>